<svg width="216" height="142" viewBox="0 0 216 142" fill="none" xmlns="http://www.w3.org/2000/svg">
<path d="M108.343 141.051H137.299V99.7939L108.343 126.433V141.051Z" fill="#5BE8C1"/>
<path d="M28.669 0H0V141.051H28.669V0Z" fill="white"/>
<path d="M138.087 98.8789L138.028 99.1234L137.829 99.3076L169.567 141.051H209.705L159.533 79.127L138.087 98.8789Z" fill="#FD0045"/>
<path d="M172.879 0L137.299 34.7028V0H108.343V0.572656L107.196 0L68.4927 66.513L42.9764 22.0766L43.5491 80.56C61.8977 112.383 42.1159 77.98 60.4645 109.516L76.8056 109.802C87.4139 91.7407 98.0206 73.3925 108.343 55.0444V103.246L215.309 0H172.879Z" fill="#5BE8C1"/>
</svg>
